<svg width="136" height="137" viewBox="0 0 136 137" fill="none" xmlns="http://www.w3.org/2000/svg">
<path fill-rule="evenodd" clip-rule="evenodd" d="M75.1527 106.602L108.901 72.571C110.013 71.5504 110.646 70.1101 110.646 68.6006C110.646 67.0911 110.013 65.6508 108.901 64.6303L75.1528 30.5987C73.0792 28.57 69.8455 28.3305 67.4957 30.0316C66.1105 30.9618 65.2345 32.4814 65.1235 34.1462C65.0125 35.8111 65.679 37.4335 66.9285 38.5394L91.3177 62.9287H31.1954C28.0628 62.9287 25.5234 65.4681 25.5234 68.6006C25.5234 71.7331 28.0628 74.2725 31.1954 74.2725H91.3177L66.9285 98.6618C65.679 99.7677 65.0125 101.39 65.1235 103.055C65.2344 104.72 66.1105 106.239 67.4957 107.17C69.8455 108.871 73.0792 108.631 75.1528 106.602L75.1527 106.602Z" fill="#0900FF"/>
</svg>
